/* XPM */
static char *bitcoin32_xpm[] = {
/* width height num_colors chars_per_pixel */
"    32    32       32            1",
/* colors */
"` c #000000",
". c #080808",
"# c #101010",
"a c #181818",
"b c #202020",
"c c #292929",
"d c #313131",
"e c #393939",
"f c #414141",
"g c #4a4a4a",
"h c #525252",
"i c #5a5a5a",
"j c #626262",
"k c #6a6a6a",
"l c #737373",
"m c #7b7b7b",
"n c #838383",
"o c #8b8b8b",
"p c #949494",
"q c #9c9c9c",
"r c #a4a4a4",
"s c #acacac",
"t c #b4b4b4",
"u c #bdbdbd",
"v c #c5c5c5",
"w c #cdcdcd",
"x c #d5d5d5",
"y c #dedede",
"z c #e6e6e6",
"A c #eeeeee",
"B c #f6f6f6",
"C c #ffffff",
/* pixels */
"CCCCCCCCCCCCztpnnptzCCCCCCCCCCCC",
"CCCCCCCCCCxqkdaaaadkqxCCCCCCCCCC",
"CCCCCCCCwlc#bfijjifb#clwCCCCCCCC",
"CCCCCCCpc#eovBCCCCBvoe#cpCCCCCCC",
"CCCCCzjabpBCCCCCCCCCCCpbajzCCCCC",
"CCCCAh#fxCCAArigjlvCACCxf#hACCCC",
"CCCCj.iCCAxufdlrrlffswxCCi.jCCCC",
"CCCoafCCzttdjCCCCCClbsxCCCfaoCCC",
"CCxcbzCAqvgkCCmhhkACofCCBCzbcxCC",
"CCk.rCAqusgCAffpogcxChpArzCr.kCC",
"CybeCBuvCkoCkgztvCpgCvfurtBCebyC",
"Cp#oCBACCiwBgrtwCCCgxChstpyCo#pC",
"zjbwCCCCxhzAgxACCBygtCiptxBCwbjz",
"tcfCCCyttfvBfxCBxsthvChuBCCCCfct",
"paiCCvrrvimCqcxytvxgvChACCwzCiap",
"najCBrqsyydzCnbhigqkuCiBztpyCjan",
"najCAquACCqbACyoptjewCiussryCjan",
"pbhCBzCCCxykcpCCCCjaxChqtrqzCibp",
"udfBCCCztrsyoegijgqltCiqrtzCBfdu",
"AjbvCAurrttqvBytsvAfxCgsyCCCvbjA",
"Cq#nCypttrsyCCCCzzjgCugBCCBCn#qC",
"CzcdBCuqruCvyCysnicxCgpCBvBCdczC",
"CCl.pCAtyCpffrqeijACofCyqvCp.lCC",
"CCydayCCCyeCxfftCCCldywouCyacyCC",
"CCCqadBCCveqmkljrmgixuovCBdaqCCC",
"CCCCl#fACAsdgxColmrxrryCBf#lCCCC",
"CCCCBj#dvCCABCCCAwtsxCCwd#jBCCCC",
"CCCCCBmaamzCCCCBxyCCCzmaamBCCCCC",
"CCCCCCCrd#clszCCCCAtlc#drCCCCCCC",
"CCCCCCCCynd#adggggda#dnyCCCCCCCC",
"CCCCCCCCCCzsmgbbbbgmszCCCCCCCCCC",
"CCCCCCCCCCCCBxrnnrxBCCCCCCCCCCCC"
};
