/* XPM */
static char *bitcoin64_xpm[] = {
/* width height num_colors chars_per_pixel */
"    64    64       64            2",
/* colors */
"`` c #000000",
"`. c #040404",
"`# c #080808",
"`a c #0c0c0c",
"`b c #101010",
"`c c #141414",
"`d c #181818",
"`e c #1c1c1c",
"`f c #202020",
"`g c #242424",
"`h c #282828",
"`i c #2c2c2c",
"`j c #303030",
"`k c #343434",
"`l c #383838",
"`m c #3c3c3c",
"`n c #404040",
"`o c #444444",
"`p c #484848",
"`q c #4c4c4c",
"`r c #505050",
"`s c #555555",
"`t c #595959",
"`u c #5d5d5d",
"`v c #616161",
"`w c #656565",
"`x c #696969",
"`y c #6d6d6d",
"`z c #717171",
"`A c #757575",
"`B c #797979",
"`C c #7d7d7d",
"`D c #818181",
"`E c #858585",
"`F c #898989",
"`G c #8d8d8d",
"`H c #919191",
"`I c #959595",
"`J c #999999",
"`K c #9d9d9d",
"`L c #a1a1a1",
"`M c #a5a5a5",
"`N c #aaaaaa",
"`O c #aeaeae",
"`P c #b2b2b2",
"`Q c #b6b6b6",
"`R c #bababa",
"`S c #bebebe",
"`T c #c2c2c2",
"`U c #c6c6c6",
"`V c #cacaca",
"`W c #cecece",
"`X c #d2d2d2",
"`Y c #d6d6d6",
"`Z c #dadada",
"`0 c #dedede",
"`1 c #e2e2e2",
"`2 c #e6e6e6",
"`3 c #eaeaea",
"`4 c #eeeeee",
"`5 c #f2f2f2",
"`6 c #f6f6f6",
"`7 c #fafafa",
"`8 c #ffffff",
/* pixels */
"`8`8`8`8`8`8`8`8`8`8`8`8`8`8`8`8`8`8`8`8`8`8`8`8`8`8`8`8`8`8`8`8`8`8`8`8`8`8`8`8`8`8`8`8`8`8`8`8`8`8`8`8`8`8`8`8`8`8`8`8`8`8`8`8",
"`8`8`8`8`8`8`8`8`8`8`8`8`8`8`8`8`8`8`8`8`8`8`8`8`8`7`0`T`L`F`B`A`A`B`F`L`S`0`7`8`8`8`8`8`8`8`8`8`8`8`8`8`8`8`8`8`8`8`8`8`8`8`8`8",
"`8`8`8`8`8`8`8`8`8`8`8`8`8`8`8`8`8`8`8`8`8`8`8`Z`N`D`u`o`l`m`m`m`m`m`m`l`o`u`D`N`Z`8`8`8`8`8`8`8`8`8`8`8`8`8`8`8`8`8`8`8`8`8`8`8",
"`8`8`8`8`8`8`8`8`8`8`8`8`8`8`8`8`8`8`8`8`0`K`v`m`m`m`m`m`m`m`m`m`m`m`m`m`m`m`m`m`m`v`L`0`8`8`8`8`8`8`8`8`8`8`8`8`8`8`8`8`8`8`8`8",
"`8`8`8`8`8`8`8`8`8`8`8`8`8`8`8`8`8`8`W`B`m`m`m`m`n`l`h`e`d`c`c`c`c`c`c`d`e`h`l`n`m`m`m`m`B`W`8`8`8`8`8`8`8`8`8`8`8`8`8`8`8`8`8`8",
"`8`8`8`8`8`8`8`8`8`8`8`8`8`8`8`8`Z`A`m`m`m`n`k`e`b`f`n`u`C`I`J`K`K`J`I`C`u`n`f`b`e`k`n`m`m`m`A`Z`8`8`8`8`8`8`8`8`8`8`8`8`8`8`8`8",
"`8`8`8`8`8`8`8`8`8`8`8`8`8`8`8`K`m`m`m`n`i`b`g`r`I`U`6`8`8`8`8`8`8`8`8`8`8`6`U`I`r`f`b`i`n`m`m`m`K`8`8`8`8`8`8`8`8`8`8`8`8`8`8`8",
"`8`8`8`8`8`8`8`8`8`8`8`8`8`0`w`m`m`n`j`b`i`C`W`8`8`8`8`8`8`8`8`8`8`8`8`8`8`8`8`8`8`W`C`i`b`j`n`m`m`w`0`8`8`8`8`8`8`8`8`8`8`8`8`8",
"`8`8`8`8`8`8`8`8`8`8`8`8`T`o`l`n`m`c`h`E`2`8`8`8`8`8`8`8`8`8`8`8`8`8`8`8`8`8`8`8`8`8`8`2`E`h`c`m`n`l`o`T`8`8`8`8`8`8`8`8`8`8`8`8",
"`8`8`8`8`8`8`8`8`8`8`8`N`m`m`n`i`a`u`0`8`8`8`8`8`8`8`8`8`7`5`4`4`1`4`8`8`8`8`8`8`8`8`8`8`8`0`u`a`i`n`m`m`N`8`8`8`8`8`8`8`8`8`8`8",
"`8`8`8`8`8`8`8`8`8`8`K`m`m`o`e`d`L`8`8`8`8`8`8`8`8`2`Y`Y`X`U`Q`N`R`3`8`8`8`8`8`8`8`8`8`8`8`8`8`L`d`e`o`m`m`K`8`8`8`8`8`8`8`8`8`8",
"`8`8`8`8`8`8`8`8`8`N`m`m`n`c`i`X`8`8`8`8`8`8`6`X`R`T`S`I`u`k`h`e`i`k`k`w`P`8`8`8`X`0`8`8`8`8`8`8`X`i`c`n`m`l`N`8`8`8`8`8`8`8`8`8",
"`8`8`8`8`8`8`8`8`U`l`m`n`c`n`3`8`8`8`8`8`7`X`N`P`V`K`m```e`o`y`E`D`y`p`e```g`K`Y`Q`L`S`2`8`8`8`8`8`3`n`c`n`m`m`U`8`8`8`8`8`8`8`8",
"`8`8`8`8`8`8`8`2`n`l`o`c`n`5`8`8`8`8`8`1`P`L`T`W`t```j`K`2`8`8`8`8`8`8`7`P`o```g`P`X`M`N`T`3`8`8`8`8`5`n`c`o`l`n`2`8`8`8`8`8`8`8",
"`8`8`8`8`8`8`8`u`m`n`e`i`4`8`8`8`8`8`W`M`M`V`U`i```E`8`8`8`8`8`8`8`8`8`8`8`8`Q`d`.`M`Y`L`L`Z`8`8`8`8`8`4`i`e`n`m`u`8`8`8`8`8`8`8",
"`8`8`8`8`8`8`J`n`m`i`d`0`8`8`8`8`8`T`L`O`U`U`g`.`S`8`8`8`8`8`8`8`8`8`8`8`8`8`8`3`k```L`2`5`8`8`8`8`8`8`8`0`d`i`m`n`J`8`8`8`8`8`8",
"`8`8`8`8`8`1`m`m`m`#`O`8`8`8`8`8`S`L`Q`Q`V`m```W`8`8`8`8`8`4`Q`H`E`M`Z`8`8`8`8`8`6`i`.`6`8`8`8`8`8`8`8`8`8`O`#`m`m`m`1`8`8`8`8`8",
"`8`8`8`8`8`z`m`n`b`x`8`8`8`8`8`T`M`Q`N`X`D```O`8`8`8`8`5`z`e`.`c`c`.`a`r`W`8`8`8`8`3`.`n`8`8`8`8`8`5`8`8`8`8`w`b`n`m`z`8`8`8`8`8",
"`8`8`8`8`X`m`m`i`g`4`8`8`8`8`X`M`O`M`V`4`d`t`8`8`8`8`0`f```s`J`O`O`M`A`a```L`8`8`8`8`O```P`8`8`3`R`N`6`8`8`8`4`g`i`m`m`Y`8`8`8`8",
"`8`8`8`8`z`m`n`a`H`8`8`8`8`3`L`L`P`0`8`I```Z`8`8`8`2`c`c`N`Y`V`T`T`V`U`S`r```O`8`8`8`8`j`l`6`X`N`N`M`S`8`8`8`8`H`a`n`m`z`8`8`8`8",
"`8`8`8`1`m`m`i`i`5`8`8`8`7`M`L`X`7`8`8`i`p`8`8`8`8`q`.`R`Y`P`P`Q`O`L`Q`7`8`p```2`8`8`8`K```M`R`P`Q`Q`L`Z`8`8`8`5`i`i`m`m`1`8`8`8",
"`8`8`8`K`l`n`a`E`8`8`8`7`U`P`4`8`8`8`Y`.`L`8`8`8`T```F`Y`P`Q`P`M`P`Z`8`8`8`5```y`8`8`8`0`b`z`W`Q`Q`Q`O`O`6`8`8`8`D`a`n`l`K`8`8`8",
"`8`8`8`t`m`k`g`0`8`8`8`6`1`8`8`8`8`8`O```U`8`8`8`v`d`T`S`P`M`N`W`6`8`8`8`8`8`x`d`7`8`8`8`k`s`V`Q`Q`Q`Q`M`V`7`8`8`0`f`k`m`t`8`8`8",
"`8`8`Z`m`m`e`t`8`8`8`8`8`8`8`8`8`8`8`N`b`0`8`8`8`l`p`W`N`M`T`4`8`8`8`8`8`8`8`O`.`W`8`8`8`p`o`V`Q`Q`Q`P`L`Q`7`8`8`8`t`e`m`m`Z`8`8",
"`8`8`M`m`m`b`J`8`8`8`8`8`8`8`8`8`8`7`C`e`2`8`8`5`i`v`S`R`1`8`8`8`8`8`8`8`8`2`H`.`Q`8`8`8`q`m`V`Q`Q`N`N`W`6`8`8`8`8`I`b`n`l`M`8`8",
"`8`6`B`m`l`f`W`8`8`8`8`8`8`8`8`7`W`U`y`g`1`8`8`7`j`r`3`8`8`8`8`8`8`8`8`1`R`S`F`a`R`8`8`8`q`m`V`N`M`S`3`8`8`8`8`8`8`W`f`l`m`B`6`8",
"`8`0`u`m`h`n`7`8`8`8`8`8`8`8`Z`P`L`U`F`b`V`8`8`8`q`i`8`8`8`8`8`8`8`4`T`M`N`V`H`a`R`8`8`8`q`m`S`R`1`8`8`8`8`8`8`8`8`7`n`h`m`u`0`8",
"`8`T`n`m`e`u`8`8`8`8`8`8`2`R`M`O`Q`U`K`.`N`8`8`8`O```U`8`8`8`8`7`W`N`M`P`Q`V`G`a`R`8`8`8`p`l`1`8`8`8`8`8`8`8`8`8`8`8`u`e`m`n`S`8",
"`8`K`m`m`d`C`8`8`8`8`5`U`N`N`Q`Q`Q`S`Q`c`w`8`8`8`7`h`h`8`8`8`0`P`M`O`Q`P`P`V`G`a`R`8`8`8`n`q`8`8`8`8`8`8`8`3`2`8`8`8`C`d`m`m`K`8",
"`8`E`m`m`c`I`8`8`8`6`P`L`P`Q`Q`Q`P`M`X`x`#`4`8`8`8`V```p`2`1`P`P`R`S`V`V`R`U`G`a`R`8`8`8`n`p`8`8`8`8`8`7`X`K`U`8`8`8`I`c`m`m`E`8",
"`8`B`m`m`c`J`8`8`8`3`N`P`Q`Q`Q`N`N`U`8`2```C`8`8`8`8`O```b`D`P`U`U`P`H`I`T`Z`F`a`R`8`8`8`n`p`8`8`8`8`0`Q`M`M`U`8`8`8`J`c`m`m`B`8",
"`8`A`m`m`c`J`8`8`8`3`O`P`Q`O`M`S`2`8`8`8`z```Y`8`8`8`8`V`l```b`j`k`e`#`.`k`U`L`#`R`8`8`8`n`p`8`8`3`S`M`N`Q`N`T`8`8`8`J`c`m`m`A`8",
"`8`A`m`m`c`J`8`8`8`2`O`O`M`P`0`8`8`8`8`8`6`g`c`4`8`8`8`8`8`S`E`t`r`C`Q`O`d`m`R`c`R`8`8`8`n`r`8`W`N`N`Q`Q`Q`N`T`8`8`8`J`c`m`m`A`8",
"`8`B`m`m`c`J`8`8`8`3`K`N`X`7`8`8`8`8`8`8`8`Y```h`2`8`8`8`8`8`8`8`8`8`8`8`W`e`y`g`R`8`8`8`p`p`W`M`P`Q`Q`Q`Q`N`U`8`8`8`J`c`m`m`B`8",
"`8`F`m`m`c`H`8`8`8`3`T`4`8`8`8`8`8`8`8`6`V`W`M`#`d`R`8`8`8`8`8`8`8`8`8`8`8`j`n`h`R`8`8`8`q`l`U`Q`Q`Q`Q`Q`Q`L`U`8`8`8`H`d`m`m`F`8",
"`8`M`m`m`d`A`8`8`8`7`8`8`8`8`8`8`8`8`Y`O`M`O`X`Q`h```u`T`8`8`8`8`8`8`8`8`F`a`E`g`R`8`8`8`q`m`V`Q`Q`Q`Q`P`M`M`0`8`8`8`A`d`m`m`M`8",
"`8`U`o`m`f`t`8`8`8`8`8`8`8`8`8`8`1`R`M`O`Q`Q`P`V`U`z`b`.`k`A`M`Q`Q`O`H`o```F`Y`#`R`8`8`8`q`m`V`Q`Q`Q`N`M`T`4`8`8`8`8`t`f`m`o`U`8",
"`8`1`v`m`i`m`5`8`8`8`8`8`8`8`4`T`M`N`Q`Q`Q`Q`Q`P`S`Y`P`x`m`f`#`````.`b`i`J`8`Q```Q`8`8`8`q`m`V`Q`O`M`R`1`8`8`8`8`8`5`m`i`m`v`2`8",
"`8`7`D`m`m`e`T`8`8`8`8`8`7`W`N`M`P`Q`Q`Q`Q`Q`Q`Q`P`L`R`5`8`7`W`Q`R`T`4`8`8`Y`B`a`U`8`8`8`p`o`U`M`O`Y`8`8`8`8`8`8`8`T`e`m`m`D`7`8",
"`8`8`N`n`m`b`F`8`8`8`8`Z`P`M`P`Q`Q`Q`Q`Q`Q`Q`Q`N`N`V`6`8`8`8`8`8`8`8`8`W`M`U`s`h`6`8`8`8`l`q`T`V`6`8`8`8`8`8`8`8`8`F`b`m`n`N`8`8",
"`8`8`1`m`m`f`q`8`8`8`8`S`K`R`Q`Q`Q`Q`Q`Q`Q`N`M`S`3`8`8`8`8`8`8`8`7`W`N`L`U`R`.`z`8`8`8`0`a`B`6`8`8`8`8`8`8`8`8`8`8`q`f`m`m`2`8`8",
"`8`8`8`w`m`l`e`W`8`8`8`4`N`P`Q`Q`Q`Q`Q`O`M`Q`1`8`8`8`8`8`8`8`8`Z`P`L`O`U`Z`o`.`1`8`8`8`K```Y`8`8`8`8`8`8`8`8`8`8`W`e`l`m`w`8`8`8",
"`8`8`8`N`l`n`b`z`8`8`8`8`T`M`Q`Q`Q`P`M`O`X`8`8`8`8`8`8`8`8`2`R`O`Q`U`Y`V`q```M`8`8`8`8`j`k`8`8`8`8`8`8`0`3`8`8`8`z`b`n`l`N`8`8`8",
"`8`8`8`5`n`m`k`f`2`8`8`8`4`N`P`Q`N`N`U`5`8`8`6`P`W`8`8`4`T`O`T`Q`O`M`C`e```I`8`8`8`8`P```P`8`8`8`8`5`Q`P`6`8`8`2`f`k`m`m`5`8`8`8",
"`8`8`8`8`E`m`n`b`B`8`8`8`8`X`K`M`S`2`8`8`8`M`c`````t`Z`S`O`U`x`d`c`#`#`n`T`8`8`8`8`5`#`m`8`8`8`7`X`N`J`5`8`8`8`B`b`n`m`E`8`8`8`8",
"`8`8`8`8`1`m`m`k`d`Y`8`8`8`8`S`Y`8`8`8`8`P```q`Q`H```k`T`W`r```x`H`K`X`8`8`8`8`8`7`k```1`8`8`0`Q`L`K`0`8`8`8`Y`d`k`m`m`2`8`8`8`8",
"`8`8`8`8`8`F`l`n`d`q`8`8`8`8`8`8`8`8`8`7`k`m`8`8`8`O```L`N```I`8`8`8`8`8`8`8`8`5`l```U`8`3`S`M`O`M`V`8`8`8`8`q`d`n`l`F`8`8`8`8`8",
"`8`8`8`8`8`5`n`m`n`#`G`8`8`8`8`8`8`8`8`8`c`H`8`8`8`7`d`D`I`b`5`8`8`8`8`8`8`8`T`c```T`8`V`N`N`Q`M`T`8`8`8`8`F`#`n`m`n`5`8`8`8`8`8",
"`8`8`8`8`8`8`Q`m`m`k`a`S`8`8`8`8`8`8`6`2`i`l`8`8`8`N```M`N```J`8`8`8`8`8`R`q```i`Z`6`P`M`P`Q`L`T`8`8`8`8`S`a`k`m`m`Q`8`8`8`8`8`8",
"`8`8`8`8`8`8`8`B`l`n`h`d`Y`8`8`8`8`8`S`N`H```s`O`I`#`o`U`S`q```z`I`E`s`g```e`I`6`Y`M`O`R`O`L`V`8`8`8`8`Y`d`h`n`m`B`8`8`8`8`8`8`8",
"`8`8`8`8`8`8`8`6`r`l`n`f`g`Z`8`8`8`8`3`T`S`D`e`a`a`q`P`Q`0`6`A`b`c`d`h`v`P`4`3`Q`N`Q`Q`M`N`Z`8`8`8`8`Z`g`f`n`l`r`6`8`8`8`8`8`8`8",
"`8`8`8`8`8`8`8`8`1`n`m`n`e`g`W`8`8`8`8`8`0`V`N`I`K`R`W`3`8`8`8`4`2`4`8`8`3`Q`M`P`P`N`N`T`5`8`8`8`8`W`g`e`n`m`n`1`8`8`8`8`8`8`8`8",
"`8`8`8`8`8`8`8`8`8`V`n`m`n`f`d`N`8`8`8`8`8`6`0`T`T`1`8`8`8`8`8`8`8`8`2`Q`M`O`O`M`O`T`2`8`8`8`8`8`N`d`f`n`m`n`W`8`8`8`8`8`8`8`8`8",
"`8`8`8`8`8`8`8`8`8`8`S`m`m`n`i`#`z`8`8`8`8`8`8`6`7`8`8`8`8`8`8`6`Z`O`J`L`N`P`S`X`4`8`8`8`8`8`8`z`a`i`n`m`m`S`8`8`8`8`8`8`8`8`8`8",
"`8`8`8`8`8`8`8`8`8`8`8`V`r`l`n`l`a`n`Q`8`8`8`8`8`8`8`8`8`8`8`8`Z`Q`R`W`Z`1`5`8`8`8`8`8`8`8`Q`n`a`l`n`l`r`V`8`8`8`8`8`8`8`8`8`8`8",
"`8`8`8`8`8`8`8`8`8`8`8`8`1`u`m`m`n`f`c`u`S`8`8`8`8`8`8`8`8`8`8`7`8`8`8`8`8`8`8`8`8`8`8`S`u`c`f`n`m`m`u`1`8`8`8`8`8`8`8`8`8`8`8`8",
"`8`8`8`8`8`8`8`8`8`8`8`8`8`7`F`m`m`n`l`d`d`s`M`5`8`8`8`8`8`8`8`8`8`8`8`8`8`8`8`8`5`M`s`d`d`l`n`m`m`F`7`8`8`8`8`8`8`8`8`8`8`8`8`8",
"`8`8`8`8`8`8`8`8`8`8`8`8`8`8`8`T`t`m`m`n`l`e`c`l`x`L`W`6`8`8`8`8`8`8`8`8`6`W`L`x`k`c`e`l`n`m`m`t`T`8`8`8`8`8`8`8`8`8`8`8`8`8`8`8",
"`8`8`8`8`8`8`8`8`8`8`8`8`8`8`8`8`7`K`p`m`m`n`m`i`d`c`g`n`t`x`y`z`z`y`x`t`n`g`c`d`i`m`n`m`m`p`K`7`8`8`8`8`8`8`8`8`8`8`8`8`8`8`8`8",
"`8`8`8`8`8`8`8`8`8`8`8`8`8`8`8`8`8`8`4`L`s`m`m`m`m`m`l`h`f`e`d`d`d`d`e`f`h`l`m`m`m`m`l`s`L`4`8`8`8`8`8`8`8`8`8`8`8`8`8`8`8`8`8`8",
"`8`8`8`8`8`8`8`8`8`8`8`8`8`8`8`8`8`8`8`8`8`T`E`r`m`m`l`m`m`m`m`m`m`m`m`m`m`l`m`m`r`E`T`8`8`8`8`8`8`8`8`8`8`8`8`8`8`8`8`8`8`8`8`8",
"`8`8`8`8`8`8`8`8`8`8`8`8`8`8`8`8`8`8`8`8`8`8`8`6`W`L`D`w`q`m`m`m`m`m`m`q`w`D`L`W`6`8`8`8`8`8`8`8`8`8`8`8`8`8`8`8`8`8`8`8`8`8`8`8",
"`8`8`8`8`8`8`8`8`8`8`8`8`8`8`8`8`8`8`8`8`8`8`8`8`8`8`7`1`V`J`C`A`A`C`J`V`1`7`8`8`8`8`8`8`8`8`8`8`8`8`8`8`8`8`8`8`8`8`8`8`8`8`8`8",
"`8`8`8`8`8`8`8`8`8`8`8`8`8`8`8`8`8`8`8`8`8`8`8`8`8`8`8`8`8`8`8`8`8`8`8`8`8`8`8`8`8`8`8`8`8`8`8`8`8`8`8`8`8`8`8`8`8`8`8`8`8`8`8`8"
};
