/* XPM */
static char *bitcoin16_xpm[] = {
/* width height num_colors chars_per_pixel */
"    16    16       16            1",
/* colors */
"` c #000000",
". c #111111",
"# c #222222",
"a c #333333",
"b c #444444",
"c c #555555",
"d c #666666",
"e c #777777",
"f c #888888",
"g c #999999",
"h c #aaaaaa",
"i c #bbbbbb",
"j c #cccccc",
"k c #dddddd",
"l c #eeeeee",
"m c #ffffff",
/* pixels */
"mmmmmjebbejmmmmm",
"mmmkcbgiigbckmmm",
"mmi#gmkiilmg#imm",
"mk.jmfeggefmj.km",
"mbhmfejeeiehmhbm",
"jbmlhiehkghehmbj",
"efmkfhgmmgggkmfe",
"ailgggiefehilkhb",
"bhlkmefgfcigfkib",
"efmjhhghjehfjmfe",
"kbmhhimlfhghmmbk",
"mbgmjfecfhfimgbm",
"mk.jmefggeimi#km",
"mmj#fkmmlllg#jmm",
"mmmkcbfggfackmmm",
"mmmmmkfbbfkmmmmm"
};
